# xmcd
# 
# Track frame offsets:
#     150
#     10137
#     19849
#     37543
#     49132
#     62098
#     79857
#     91016
#     108835
#     132730
#     143874
#     159112
#     176893
#     189897
#     212489
#     226789
#     237820
#     253630
#     268139
#     279575
#     296720
#     318343
# 
# Disc length: 4434
# 
# Revision: 0
# Processed by: cddbd v1.5.2PL0 Copyright (c) Steve Scherf et al.
# Submitted via: BonkEnc v1.0.6
# 
DISCID=26115016
DTITLE=Geraldo Azevedo - O Melhor de Geraldo Azevedo
DYEAR=2000
DGENRE=MPB
TTITLE0=Moca bonita
TTITLE1=Dia branco
TTITLE2=Canta coracao
TTITLE3=Caravelas
TTITLE4=Terra a vista
TTITLE5=Chorando e cantando
TTITLE6=Sabor colorido
TTITLE7=Principio do prazer
TTITLE8=Dona da minha cabeca
TTITLE9=Bicho de sete cabecas
TTITLE10=Voce se lembra
TTITLE11=Taxi lunar
TTITLE12=Ai que saudade d oce
TTITLE13=E brincadeira
TTITLE14=Espiral do tempo
TTITLE15=Beleza agreste
TTITLE16=Principe brilhante
TTITLE17=Rasgo de lua
TTITLE18=Tres janeiros
TTITLE19=Baiao de garoa
TTITLE20=For all para todos
TTITLE21=Menina do lido
EXTD=YEAR: 2000
EXTT0=
EXTT1=
EXTT2=
EXTT3=
EXTT4=
EXTT5=
EXTT6=
EXTT7=
EXTT8=
EXTT9=
EXTT10=
EXTT11=
EXTT12=
EXTT13=
EXTT14=
EXTT15=
EXTT16=
EXTT17=
EXTT18=
EXTT19=
EXTT20=
EXTT21=
PLAYORDER=
